:version 1.10
:name ASF
:units
  mass 1
  length 1
  angle deg
:documentation
  ASF file generated by Kaydara
:root
  axis xyz
  order  tx ty tz rx ry rz
  position 0 0 0
  orientation 0 0 0
:bonedata
  begin
    id 1
    name RightUpLegDummy
    direction -0.718183 -0.695806 0.00816078
    length 4.904
    axis 0 0 0 xyz
  end
  begin
    id 2
    name RightUpLeg
    direction -0.00334265 -0.999142 0.0412837
    length 17.4976
    axis -0.59612 0.00940841 -0.192072 xyz
    dof rx ry rz
  end
  begin
    id 3
    name RightLeg
    direction 0.000365068 -0.988824 -0.149089
    length 16.5821
    axis 6.58657 0.0604092 -0.318554 xyz
    dof rx ry rz
  end
  begin
    id 4
    name RightFoot
    direction 0.00079069 -0.460991 0.887405
    length 3.77069
    axis 0.000105557 -0.120464 -0.188919 xyz
    dof rx ry rz
  end
  begin
    id 5
    name RightToes
    direction 0.00124768 -0.014065 0.9999
    length 3.85082
    axis 0.00053932 0.542178 -0.142707 xyz
    dof rx ry rz
  end
  begin
    id 6
    name SpineDummy
    direction 8.3039e-015 1 4.58682e-016
    length 4.6813
    axis 0 0 0 xyz
  end
  begin
    id 7
    name Spine
    direction 4.12799e-006 0.999988 0.00494944
    length 10.1015
    axis -0.00149944 0.000129667 -0.000235877 xyz
    dof rx ry rz
  end
  begin
    id 8
    name Spine1
    direction 0 0 0
    length 0
    axis -0.00160567 0.000129431 -0.000308381 xyz
    dof rx ry rz
  end
  begin
    id 9
    name HEadDummy
    direction 5.38513e-006 0.999999 0.00127044
    length 3.43865
    axis -0.00160567 0.000129431 -0.000308381 xyz
  end
  begin
    id 10
    name HEad
    direction -0.0226495 0.980942 0.192974
    length 5.12695
    axis -0.00160642 -0.114462 -0.000307946 xyz
    dof rx ry rz
  end
  begin
    id 11
    name LeftShoulder1Dummy
    direction 0.99889 -0.0402564 -0.0244456
    length 3.5433
    axis -0.00160567 0.000129431 -0.000308381 xyz
  end
  begin
    id 12
    name LeftShoulder1
    direction 0.999464 -0.00142945 0.0326977
    length 4.05031
    axis 0.393425 -0.0796525 -0.0507861 xyz
    dof rx ry rz
  end
  begin
    id 13
    name LeftArm
    direction 0.998564 -0.000899612 -0.053557
    length 10.3537
    axis -22.9476 0.126974 0.960871 xyz
    dof rx ry rz
  end
  begin
    id 14
    name LeftForeArm
    direction 0.998903 0.00865904 0.0460121
    length 8.70632
    axis -9.91856 -0.0656997 -0.178106 xyz
    dof rx ry rz
  end
  begin
    id 15
    name LeftHand
    direction 0.992938 -0.0411687 0.11126
    length 5.32135
    axis -0.00981066 -0.00340928 0.18486 xyz
    dof rx ry rz
  end
  begin
    id 16
    name RightShoulderDummy
    direction -0.998891 -0.0402456 -0.0244411
    length 3.5433
    axis -0.00160567 0.000129431 -0.000308381 xyz
  end
  begin
    id 17
    name RightShoulder
    direction -0.999353 -0.00388479 0.0357579
    length 4.05031
    axis 1.48787 0.256014 0.157284 xyz
    dof rx ry rz
  end
  begin
    id 18
    name RightArm
    direction -0.998583 -0.000660455 -0.0532032
    length 10.3947
    axis -22.4211 -0.109147 -0.943573 xyz
    dof rx ry rz
  end
  begin
    id 19
    name RightForeArm
    direction -0.998898 0.00868588 0.0461311
    length 8.68355
    axis -9.92343 0.0658342 0.178556 xyz
    dof rx ry rz
  end
  begin
    id 20
    name RightHand
    direction -0.992843 -0.0414545 0.112004
    length 5.28593
    axis -0.00982288 0.00332907 -0.185539 xyz
    dof rx ry rz
  end
  begin
    id 21
    name LeftUpLegDummy
    direction 0.718183 -0.695806 0.00816078
    length 4.904
    axis 0 0 0 xyz
  end
  begin
    id 22
    name LeftUpLeg
    direction 0.00445374 -0.999139 0.0412407
    length 17.4976
    axis -0.593655 -0.0138231 0.255969 xyz
    dof rx ry rz
  end
  begin
    id 23
    name LeftLeg
    direction -0.00154847 -0.988829 -0.149046
    length 16.5821
    axis 6.5841 -0.0555156 0.250722 xyz
    dof rx ry rz
  end
  begin
    id 24
    name LeftFoot
    direction -0.00417678 -0.460985 0.887398
    length 3.77069
    axis 5.53694e-005 4.88088e-005 -0.000136194 xyz
    dof rx ry rz
  end
  begin
    id 25
    name LeftToes
    direction 0.00818061 -0.00485256 0.999955
    length 3.85048
    axis 6.41179e-005 4.88477e-005 -0.000136145 xyz
    dof rx ry rz
  end
:hierarchy
  begin
    root RightUpLegDummy SpineDummy LeftUpLegDummy
    RightUpLegDummy RightUpLeg
    RightUpLeg RightLeg
    RightLeg RightFoot
    RightFoot RightToes
    SpineDummy Spine
    Spine Spine1
    Spine1 HEadDummy LeftShoulder1Dummy RightShoulderDummy
    HEadDummy HEad
    LeftShoulder1Dummy LeftShoulder1
    LeftShoulder1 LeftArm
    LeftArm LeftForeArm
    LeftForeArm LeftHand
    RightShoulderDummy RightShoulder
    RightShoulder RightArm
    RightArm RightForeArm
    RightForeArm RightHand
    LeftUpLegDummy LeftUpLeg
    LeftUpLeg LeftLeg
    LeftLeg LeftFoot
    LeftFoot LeftToes
  end

:SAMPLES-PER-SECOND 30
:FULLY-SPECIFIED
:DEGREES
153
root  0.273645 40.3109 0.387154 -129.426 -87.0514 129.595
RightUpLeg  4.16144 -7.58229 -11.7814
RightLeg  -4.24415 -10.7838 0.115981
RightFoot  -1.00336 -0.805537 8.81169
RightToes  6.35927e-011 1.30204e-014 -6.03759e-014
Spine  -0.940963 -1.38738 11.309
Spine1  3.12171 1.70517 -15.7421
HEad  9.26783 13.3708 -48.9595
LeftShoulder1  2.00638 -4.80498 -17.5169
LeftArm  -4.03335 13.4593 -52.7145
LeftForeArm  17.9614 -9.3514 -11.3423
LeftHand  -0.377002 -0.506539 7.50007
RightShoulder  0.773314 0.22545 13.9056
RightArm  15.2371 -0.434735 62.9297
RightForeArm  26.205 2.68705 17.1066
RightHand  -0.208392 -2.47961 -7.9479
LeftUpLeg  6.06686 10.0195 11.6453
LeftLeg  -3.9965 21.5705 -2.58157
LeftFoot  -0.769645 0.655048 -6.98071
LeftToes  1.82556e-010 9.56953e-011 7.56925e-011
154
root  0.322409 40.3114 0.397118 -129.853 -87.0238 129.958
RightUpLeg  4.19574 -7.58109 -11.7901
RightLeg  -4.36854 -10.767 0.139835
RightFoot  -0.923609 -0.795447 8.64046
RightToes  6.35927e-011 1.30204e-014 -6.03759e-014
Spine  -1.1053 -1.15071 11.2448
Spine1  3.53211 1.994 -15.7447
HEad  17.5314 19.0921 -45.6299
LeftShoulder1  1.96695 -4.5941 -17.6711
LeftArm  -3.06507 13.5412 -52.6771
LeftForeArm  17.7129 -9.78151 -11.2993
LeftHand  -0.323195 -0.355768 6.59891
RightShoulder  0.758246 0.116353 14.1349
RightArm  14.4582 -0.272077 62.4761
RightForeArm  26.7626 2.51345 17.0544
RightHand  -0.217737 -2.23005 -7.69439
LeftUpLeg  6.0092 10.0033 11.6262
LeftLeg  -3.87634 21.5897 -2.53313
LeftFoot  -0.744421 0.659003 -7.03457
LeftToes  1.82556e-010 9.56953e-011 7.56925e-011
155
root  0.38182 40.3132 0.401001 -127.133 -87.0924 127.278
RightUpLeg  4.11479 -7.63265 -11.8517
RightLeg  -4.4024 -10.8349 0.208504
RightFoot  -0.853118 -0.803404 8.67307
RightToes  6.35927e-011 1.30204e-014 -6.03759e-014
Spine  -1.53332 -1.04345 10.9624
Spine1  4.23335 2.14705 -15.6233
HEad  25.6986 23.9163 -40.6154
LeftShoulder1  1.9441 -4.47537 -17.7506
LeftArm  -3.39116 13.5345 -52.6911
LeftForeArm  17.9472 -9.57605 -11.3457
LeftHand  -0.354502 -0.681466 6.88187
RightShoulder  0.750846 0.00797739 14.6248
RightArm  13.1253 0.0933708 62.0545
RightForeArm  27.6374 2.30032 16.9477
RightHand  -0.211642 -2.3105 -7.64948
LeftUpLeg  5.7125 9.90443 11.5092
LeftLeg  -3.66606 21.5918 -2.38374
LeftFoot  -0.727847 0.657914 -7.01793
LeftToes  1.82556e-010 9.56953e-011 7.56925e-011
156
root  0.443693 40.3168 0.396702 -128.018 -87.1614 128.007
RightUpLeg  4.19185 -7.5601 -11.7407
RightLeg  -4.4368 -10.8562 0.190187
RightFoot  -0.773215 -0.777484 8.33542
RightToes  6.35927e-011 1.30204e-014 -6.03759e-014
Spine  -1.92115 -0.960574 10.486
Spine1  5.38032 2.23761 -15.0423
HEad  33.6134 27.4496 -34.7798
LeftShoulder1  1.91991 -4.3025 -17.9999
LeftArm  -3.79483 13.5087 -52.7682
LeftForeArm  17.1239 -9.56851 -11.3272
LeftHand  -0.409909 -0.638163 8.01045
RightShoulder  0.74813 -0.0535472 14.9585
RightArm  13.2108 0.904079 61.8055
RightForeArm  27.0281 2.39539 16.9351
RightHand  -0.206272 -2.56303 -8.08151
LeftUpLeg  5.69544 9.95217 11.612
LeftLeg  -3.49836 21.4785 -2.29322
LeftFoot  -0.696848 0.654041 -6.96935
LeftToes  1.82556e-010 9.56953e-011 7.56925e-011
157
root  0.513663 40.3186 0.384043 -127.502 -87.2681 127.423
RightUpLeg  4.20467 -7.46068 -11.6223
RightLeg  -4.48701 -11.0456 0.181293
RightFoot  -0.633628 -0.799816 8.47233
RightToes  6.35927e-011 1.30204e-014 -6.03759e-014
Spine  -2.52511 -0.890273 9.88436
Spine1  6.90416 2.31218 -14.3346
HEad  40.9022 28.7509 -28.2619
LeftShoulder1  1.89901 -4.23201 -17.9486
LeftArm  -3.75301 13.4799 -53.117
LeftForeArm  14.7279 -10.1871 -11.1343
LeftHand  -0.473567 -1.41804 8.25413
RightShoulder  0.73488 -0.156793 15.2659
RightArm  14.1998 1.86047 61.7501
RightForeArm  25.4878 2.81849 16.9472
RightHand  -0.188598 -2.84993 -8.11893
LeftUpLeg  5.5711 9.98291 11.6923
LeftLeg  -3.38105 21.3402 -2.21885
LeftFoot  -0.62775 0.634439 -6.72275
LeftToes  1.82556e-010 9.56953e-011 7.56925e-011
158
root  0.6012 40.321 0.361805 -125.738 -87.4169 125.525
RightUpLeg  4.2563 -7.43519 -11.5313
RightLeg  -4.50025 -11.172 0.224832
RightFoot  -0.556094 -0.801638 8.43694
RightToes  6.35927e-011 1.30204e-014 -6.03759e-014
Spine  -2.77034 -0.936392 9.19468
Spine1  8.28587 2.22121 -13.4564
HEad  46.9747 28.4382 -22.1607
LeftShoulder1  1.85023 -4.04653 -17.9013
LeftArm  -3.79637 13.2381 -53.4863
LeftForeArm  12.6803 -10.5483 -11.0354
LeftHand  -0.598565 -2.26211 9.26582
RightShoulder  0.728575 -0.230659 15.6014
RightArm  14.0008 2.60254 61.5902
RightForeArm  25.0943 3.51436 16.7129
RightHand  -0.207397 -2.50899 -7.98158
LeftUpLeg  5.45767 9.98447 11.7877
LeftLeg  -3.22469 21.0942 -2.0735
LeftFoot  -0.550952 0.654357 -6.88946
LeftToes  1.82556e-010 9.56953e-011 7.56925e-011
159
root  0.689732 40.3259 0.339369 -127.411 -87.5419 127.055
RightUpLeg  4.1792 -7.2893 -11.2892
RightLeg  -4.34227 -11.3188 0.1628
RightFoot  -0.532851 -0.780852 8.20182
RightToes  6.35927e-011 1.30204e-014 -6.03759e-014
Spine  -3.12091 -0.905488 8.36405
Spine1  9.97861 2.10883 -12.1691
HEad  51.6061 26.5407 -16.8187
LeftShoulder1  1.82795 -3.90952 -18.066
LeftArm  -2.1794 12.8738 -53.7057
LeftForeArm  10.4958 -11.6799 -10.7125
LeftHand  -0.59607 -2.13294 9.39638
RightShoulder  0.718355 -0.343168 16.1273
RightArm  16.1285 3.5157 61.2781
RightForeArm  22.8051 4.95725 16.4607
RightHand  -0.23438 -2.02172 -7.8298
LeftUpLeg  5.44631 9.99951 11.9391
LeftLeg  -3.23924 21.0872 -1.97727
LeftFoot  -0.351316 0.683322 -7.07642
LeftToes  1.82556e-010 9.56953e-011 7.56925e-011
160
root  0.765074 40.3258 0.321744 -132.268 -87.5237 131.901
RightUpLeg  3.9657 -7.13662 -11.0819
RightLeg  -4.23391 -11.3457 0.114017
RightFoot  -0.402385 -0.800253 8.31395
RightToes  6.35927e-011 1.30204e-014 -6.03759e-014
Spine  -3.4072 -0.780437 7.52416
Spine1  11.237 1.98465 -10.7605
HEad  55.1395 23.6107 -12.535
LeftShoulder1  1.84976 -3.89392 -18.4399
LeftArm  -0.692307 12.4606 -53.5577
LeftForeArm  9.74309 -12.2025 -10.6311
LeftHand  -0.561031 -1.8715 9.15316
RightShoulder  0.725183 -0.369749 16.5782
RightArm  18.372 4.16806 60.9448
RightForeArm  20.3319 6.22133 16.2169
RightHand  -0.246588 -2.01455 -8.2379
LeftUpLeg  5.32785 10.0618 12.0731
LeftLeg  -3.12275 21.1928 -1.91046
LeftFoot  -0.333001 0.68153 -7.04756
LeftToes  1.82556e-010 9.56953e-011 7.56925e-011
161
root  0.817186 40.3291 0.305074 -138.263 -87.4535 138.077
RightUpLeg  3.71245 -6.9986 -10.8673
RightLeg  -4.41783 -11.3285 0.197015
RightFoot  -0.171453 -0.818203 8.34088
RightToes  6.35927e-011 1.30204e-014 -6.03759e-014
Spine  -3.89975 -0.653168 6.97031
Spine1  12.2706 1.88139 -9.67323
HEad  57.7161 19.7318 -9.05202
LeftShoulder1  1.88041 -4.02315 -18.4169
LeftArm  0.902534 12.3874 -53.8136
LeftForeArm  9.32485 -12.6955 -10.5537
LeftHand  -0.567685 -1.6229 9.57162
RightShoulder  0.754036 -0.304375 17.0456
RightArm  19.4289 4.64954 60.8005
RightForeArm  18.8416 6.82262 16.0893
RightHand  -0.24117 -2.1192 -8.29378
LeftUpLeg  5.08382 10.1787 12.2359
LeftLeg  -3.03689 21.3337 -1.92185
LeftFoot  -0.303705 0.675572 -6.97363
LeftToes  1.82556e-010 9.56953e-011 7.56925e-011
162
root  0.865533 40.3286 0.28257 -142.965 -87.3521 143.085
RightUpLeg  3.40727 -6.88586 -10.6805
RightLeg  -4.73665 -11.2994 0.33738
RightFoot  0.0101248 -0.821388 8.25136
RightToes  6.35927e-011 1.30204e-014 -6.03759e-014
Spine  -4.48026 -0.527333 6.09589
Spine1  13.062 1.62027 -8.15601
HEad  59.4322 15.3621 -5.96382
LeftShoulder1  1.89918 -3.94608 -18.97
LeftArm  2.2 12.0452 -53.4369
LeftForeArm  9.82141 -12.5732 -10.7545
LeftHand  -0.592686 -1.84488 9.69293
RightShoulder  0.794594 -0.210681 17.6538
RightArm  19.1351 5.02441 60.4138
RightForeArm  19.6706 6.73107 16.0633
RightHand  -0.270019 -1.75684 -8.43514
LeftUpLeg  4.69023 10.2024 12.3033
LeftLeg  -2.95367 21.5799 -1.87734
LeftFoot  -0.245108 0.673016 -6.91123
LeftToes  1.82556e-010 9.56953e-011 7.56925e-011
163
root  0.913331 40.3336 0.263911 -149.663 -87.2424 150.015
RightUpLeg  3.094 -6.62811 -10.3352
RightLeg  -4.92105 -11.3881 0.362756
RightFoot  0.266452 -0.834793 8.21667
RightToes  6.35927e-011 1.30204e-014 -6.03759e-014
Spine  -4.77269 -0.380353 5.4639
Spine1  13.4684 1.37153 -6.71372
HEad  60.2371 10.3199 -2.97515
LeftShoulder1  1.99744 -4.20027 -19.4336
LeftArm  2.90682 12.1225 -53.2473
LeftForeArm  9.4193 -12.5813 -10.8569
LeftHand  -0.553144 -1.30802 9.74245
RightShoulder  0.810227 -0.142132 17.6215
RightArm  20.0363 5.13198 60.5831
RightForeArm  18.8128 6.89039 16.1023
RightHand  -0.272195 -1.96617 -9.01722
LeftUpLeg  4.44843 10.3245 12.532
LeftLeg  -2.96196 21.7163 -1.89222
LeftFoot  -0.149658 0.665939 -6.78409
LeftToes  1.82556e-010 9.56953e-011 7.56925e-011
164
root  0.960932 40.3345 0.240003 -153.547 -87.1236 154.136
RightUpLeg  2.85034 -6.41653 -10.083
RightLeg  -5.2109 -11.4775 0.404134
RightFoot  0.463575 -0.833842 8.08471
RightToes  6.35927e-011 1.30204e-014 -6.03759e-014
Spine  -4.93659 -0.283184 4.89002
Spine1  13.6248 1.15601 -5.61363
HEad  60.167 5.51259 -0.0799678
LeftShoulder1  2.0593 -4.34889 -19.7556
LeftArm  3.82941 12.2899 -52.9563
LeftForeArm  9.71406 -12.8263 -10.792
LeftHand  -0.576696 -1.85579 9.43265
RightShoulder  0.800133 -0.260343 18.2545
RightArm  19.5783 5.29657 60.3894
RightForeArm  19.455 6.37363 16.2704
RightHand  -0.249471 -1.96092 -8.21026
LeftUpLeg  4.09509 10.4263 12.6651
LeftLeg  -2.78709 21.8468 -1.85576
LeftFoot  -0.119863 0.654529 -6.652
LeftToes  1.82556e-010 9.56953e-011 7.56925e-011
165
root  0.990398 40.3385 0.224339 -155.019 -87.0872 155.736
RightUpLeg  2.63833 -6.38222 -9.99452
RightLeg  -5.19663 -11.4833 0.458111
RightFoot  0.540811 -0.831535 8.03384
RightToes  6.35927e-011 1.30204e-014 -6.03759e-014
Spine  -5.12371 -0.323791 4.11021
Spine1  13.7901 0.739745 -4.27733
HEad  59.3898 0.547571 3.10187
LeftShoulder1  2.11132 -4.41267 -20.2329
LeftArm  3.73498 12.4242 -52.6453
LeftForeArm  10.6247 -12.5351 -10.9416
LeftHand  -0.587448 -2.19281 9.19822
RightShoulder  0.820492 -0.203871 18.4579
RightArm  18.4604 5.39412 60.388
RightForeArm  20.85 5.50934 16.4895
RightHand  -0.256046 -1.85968 -8.2095
LeftUpLeg  3.90908 10.4392 12.7216
LeftLeg  -2.75771 21.922 -1.83291
LeftFoot  -0.044737 0.684241 -6.9113
LeftToes  1.82556e-010 9.56953e-011 7.56925e-011
